<svg width="15" height="14" viewBox="0 0 15 14" fill="none" xmlns="http://www.w3.org/2000/svg">
<path d="M7.49179 6.77002L9.11636 8.06967M7.49179 6.77002V12.6185V6.77002ZM7.49179 6.77002L5.86722 8.06967L7.49179 6.77002Z" stroke="#0064D0" stroke-width="1.5" stroke-linecap="round" stroke-linejoin="round"/>
<path d="M2.96603 4.89661C2.35143 5.05126 1.81446 5.42502 1.45599 5.94766C1.09753 6.47031 0.94226 7.10586 1.01935 7.73491C1.09643 8.36397 1.40057 8.94322 1.87462 9.36385C2.34867 9.78448 2.96001 10.0175 3.59376 10.0192H4.24359" stroke="#0064D0" stroke-width="1.5" stroke-linecap="round" stroke-linejoin="round"/>
<path d="M9.98271 3.61058C9.76061 2.73108 9.21239 1.96895 8.4492 1.47866C7.68601 0.988377 6.76494 0.806631 5.87272 0.970266C4.98049 1.1339 4.18387 1.63067 3.64433 2.35988C3.1048 3.08909 2.86272 3.99616 2.96717 4.89724C2.96717 4.89724 3.0666 5.47038 3.26999 5.7953" stroke="#0064D0" stroke-width="1.5" stroke-linecap="round" stroke-linejoin="round"/>
<path d="M10.7408 10.0191C11.1996 10.0188 11.6531 9.92136 12.0716 9.73313C12.49 9.54491 12.8638 9.2702 13.1684 8.9271C13.473 8.58399 13.7015 8.18027 13.8388 7.7425C13.9761 7.30473 14.0192 6.84284 13.9651 6.38723C13.9111 5.93162 13.7611 5.49262 13.5252 5.09914C13.2892 4.70565 12.9726 4.36659 12.5962 4.10428C12.2198 3.84197 11.7921 3.66235 11.3412 3.57725C10.8904 3.49215 10.4267 3.5035 9.98051 3.61055L9.11624 3.84579" stroke="#0064D0" stroke-width="1.5" stroke-linecap="round" stroke-linejoin="round"/>
</svg>
