<svg width="18" height="22" viewBox="0 0 18 22" fill="none" xmlns="http://www.w3.org/2000/svg">
<path fill-rule="evenodd" clip-rule="evenodd" d="M9.125 0V5.69982L9.12499 5.75423V5.75424V5.75425V5.75426C9.12491 6.17832 9.12483 6.59044 9.17053 6.93034C9.22205 7.31354 9.34757 7.75082 9.71079 8.11403C10.074 8.47725 10.5113 8.60277 10.8945 8.65429C11.2344 8.69999 11.6465 8.69991 12.0706 8.69983H12.0706H12.0706H12.0706L12.125 8.69982H18V15.4C18 18.5113 18 20.0669 17.0115 21.0335C16.023 22 14.432 22 11.25 22H6.75C3.56802 22 1.97703 22 0.988515 21.0335C0 20.0669 0 18.5113 0 15.4V6.6C0 3.48873 0 1.9331 0.988515 0.966548C1.97703 0 3.56802 0 6.75 0H9.125ZM11.125 0.00267497V5.69982C11.125 6.1995 11.1271 6.47365 11.1527 6.66385L11.1537 6.67113L11.161 6.67213C11.3512 6.6977 11.6253 6.69982 12.125 6.69982H17.9969C17.9882 6.19028 17.955 5.8675 17.8287 5.56937C17.6575 5.16507 17.3323 4.84714 16.682 4.21127L13.693 1.28873C13.0427 0.652863 12.7175 0.33493 12.3041 0.167465C11.9947 0.042175 11.6594 0.0106215 11.125 0.00267497ZM4.625 12.1002C4.625 11.5479 5.07272 11.1002 5.625 11.1002L12.375 11.1002C12.9273 11.1002 13.375 11.5479 13.375 12.1002C13.375 12.6525 12.9273 13.1002 12.375 13.1002L5.625 13.1002C5.07272 13.1002 4.625 12.6525 4.625 12.1002ZM5.625 15.5C5.07272 15.5 4.625 15.9477 4.625 16.5C4.625 17.0523 5.07272 17.5 5.625 17.5H10.125C10.6773 17.5 11.125 17.0523 11.125 16.5C11.125 15.9477 10.6773 15.5 10.125 15.5H5.625Z" fill="#0064D0"/>
</svg>
