<svg width="14" height="11" viewBox="0 0 14 11" fill="none" xmlns="http://www.w3.org/2000/svg">
<path d="M4.75781 10.7539C4.86719 10.918 5.03125 10.9727 5.25 10.9727C5.44141 10.9727 5.60547 10.918 5.74219 10.7539L13.8086 2.71484C13.918 2.60547 14 2.44141 14 2.22266C14 2.03125 13.918 1.86719 13.8086 1.73047L12.7969 0.746094C12.6602 0.609375 12.4961 0.527344 12.3047 0.527344C12.1133 0.527344 11.9492 0.609375 11.8125 0.746094L5.25 7.30859L2.1875 4.24609C2.02344 4.10938 1.85938 4.02734 1.66797 4.02734C1.47656 4.02734 1.3125 4.10938 1.20312 4.24609L0.191406 5.23047C0.0546875 5.36719 0 5.53125 0 5.72266C0 5.94141 0.0546875 6.10547 0.191406 6.21484L4.75781 10.7539Z" fill="#00C073"/>
</svg>
