<svg width="12" height="12" viewBox="0 0 12 12" fill="none" xmlns="http://www.w3.org/2000/svg">
<path d="M0 1.625C0 1.19402 0.171205 0.780698 0.475951 0.475951C0.780698 0.171205 1.19402 0 1.625 0H9.375C9.80598 0 10.2193 0.171205 10.524 0.475951C10.8288 0.780698 11 1.19402 11 1.625V5.75C10.7678 5.57539 10.5161 5.4284 10.25 5.312V1.625C10.25 1.39294 10.1578 1.17038 9.99372 1.00628C9.82962 0.842187 9.60706 0.75 9.375 0.75H1.625C1.39294 0.75 1.17038 0.842187 1.00628 1.00628C0.842187 1.17038 0.75 1.39294 0.75 1.625V9.375C0.75 9.858 1.142 10.25 1.625 10.25H5.312C5.429 10.5175 5.5765 10.769 5.7495 11H1.625C1.19402 11 0.780698 10.8288 0.475951 10.524C0.171205 10.2193 0 9.80598 0 9.375V1.625Z" fill="white" fill-opacity="0.6"/>
<path d="M1.5 4.74646C1.5 4.41494 1.6317 4.097 1.86612 3.86258C2.10054 3.62816 2.41848 3.49646 2.75 3.49646C3.08152 3.49646 3.39946 3.62816 3.63388 3.86258C3.8683 4.097 4 4.41494 4 4.74646C4 5.07798 3.8683 5.39592 3.63388 5.63034C3.39946 5.86476 3.08152 5.99646 2.75 5.99646C2.41848 5.99646 2.10054 5.86476 1.86612 5.63034C1.6317 5.39592 1.5 5.07798 1.5 4.74646ZM2.75 4.24646C2.61739 4.24646 2.49021 4.29914 2.39645 4.39291C2.30268 4.48667 2.25 4.61385 2.25 4.74646C2.25 4.87907 2.30268 5.00625 2.39645 5.10001C2.49021 5.19378 2.61739 5.24646 2.75 5.24646C2.88261 5.24646 3.00979 5.19378 3.10355 5.10001C3.19732 5.00625 3.25 4.87907 3.25 4.74646C3.25 4.61385 3.19732 4.48667 3.10355 4.39291C3.00979 4.29914 2.88261 4.24646 2.75 4.24646Z" fill="white" fill-opacity="0.6"/>
<path d="M2.75 6.99854C2.41848 6.99854 2.10054 7.13023 1.86612 7.36465C1.6317 7.59907 1.5 7.91701 1.5 8.24854C1.5 8.58006 1.6317 8.898 1.86612 9.13242C2.10054 9.36684 2.41848 9.49854 2.75 9.49854C3.08152 9.49854 3.39946 9.36684 3.63388 9.13242C3.8683 8.898 4 8.58006 4 8.24854C4 7.91701 3.8683 7.59907 3.63388 7.36465C3.39946 7.13023 3.08152 6.99854 2.75 6.99854ZM2.25 8.24854C2.25 8.11593 2.30268 7.98875 2.39645 7.89498C2.49021 7.80121 2.61739 7.74854 2.75 7.74854C2.88261 7.74854 3.00979 7.80121 3.10355 7.89498C3.19732 7.98875 3.25 8.11593 3.25 8.24854C3.25 8.38114 3.19732 8.50832 3.10355 8.60209C3.00979 8.69586 2.88261 8.74854 2.75 8.74854C2.61739 8.74854 2.49021 8.69586 2.39645 8.60209C2.30268 8.50832 2.25 8.38114 2.25 8.24854Z" fill="white" fill-opacity="0.6"/>
<path d="M4.5 4.375C4.5 4.27554 4.53951 4.18016 4.60984 4.10984C4.68016 4.03951 4.77554 4 4.875 4H9.125C9.17425 4 9.22301 4.0097 9.26851 4.02855C9.314 4.04739 9.35534 4.07501 9.39017 4.10984C9.42499 4.14466 9.45261 4.186 9.47145 4.23149C9.4903 4.27699 9.5 4.32575 9.5 4.375C9.5 4.42425 9.4903 4.47301 9.47145 4.51851C9.45261 4.564 9.42499 4.60534 9.39017 4.64016C9.35534 4.67499 9.314 4.70261 9.26851 4.72145C9.22301 4.7403 9.17425 4.75 9.125 4.75H4.875C4.77554 4.75 4.68016 4.71049 4.60984 4.64016C4.53951 4.56984 4.5 4.47446 4.5 4.375Z" fill="white" fill-opacity="0.6"/>
<path d="M1.875 1.52356C1.77554 1.52356 1.68016 1.56307 1.60983 1.63339C1.53951 1.70372 1.5 1.7991 1.5 1.89856C1.5 1.99802 1.53951 2.0934 1.60983 2.16372C1.68016 2.23405 1.77554 2.27356 1.875 2.27356H9.125C9.22446 2.27356 9.31984 2.23405 9.39017 2.16372C9.46049 2.0934 9.5 1.99802 9.5 1.89856C9.5 1.7991 9.46049 1.70372 9.39017 1.63339C9.31984 1.56307 9.22446 1.52356 9.125 1.52356H1.875Z" fill="white" fill-opacity="0.6"/>
<path d="M12 8.75C12 9.61195 11.6576 10.4386 11.0481 11.0481C10.4386 11.6576 9.61195 12 8.75 12C7.88805 12 7.0614 11.6576 6.4519 11.0481C5.84241 10.4386 5.5 9.61195 5.5 8.75C5.5 7.88805 5.84241 7.0614 6.4519 6.4519C7.0614 5.84241 7.88805 5.5 8.75 5.5C9.61195 5.5 10.4386 5.84241 11.0481 6.4519C11.6576 7.0614 12 7.88805 12 8.75ZM9 6.75C9 6.6837 8.97366 6.62011 8.92678 6.57322C8.87989 6.52634 8.8163 6.5 8.75 6.5C8.6837 6.5 8.62011 6.52634 8.57322 6.57322C8.52634 6.62011 8.5 6.6837 8.5 6.75V8.5H6.75C6.6837 8.5 6.62011 8.52634 6.57322 8.57322C6.52634 8.62011 6.5 8.6837 6.5 8.75C6.5 8.8163 6.52634 8.87989 6.57322 8.92678C6.62011 8.97366 6.6837 9 6.75 9H8.5V10.75C8.5 10.8163 8.52634 10.8799 8.57322 10.9268C8.62011 10.9737 8.6837 11 8.75 11C8.8163 11 8.87989 10.9737 8.92678 10.9268C8.97366 10.8799 9 10.8163 9 10.75V9H10.75C10.8163 9 10.8799 8.97366 10.9268 8.92678C10.9737 8.87989 11 8.8163 11 8.75C11 8.6837 10.9737 8.62011 10.9268 8.57322C10.8799 8.52634 10.8163 8.5 10.75 8.5H9V6.75Z" fill="white" fill-opacity="0.6"/>
</svg>
