<svg width="12" height="12" viewBox="0 0 12 12" fill="none" xmlns="http://www.w3.org/2000/svg">
<path d="M6 0C5.10273 0 4.36364 0.739091 4.36364 1.63636C4.36364 1.82836 4.404 2.00945 4.46618 2.18182H1.73891L1.65327 2.62527L0.0169092 10.8071L0 10.8578V12H12V10.8578L11.9831 10.8071L10.3467 2.62527L10.2611 2.18182H7.53382C7.59934 2.00731 7.63403 1.82275 7.63636 1.63636C7.63636 0.739091 6.89727 0 6 0ZM6 1.09091C6.30709 1.09091 6.54545 1.32982 6.54545 1.63636C6.54545 1.94345 6.30655 2.18182 6 2.18182C5.69291 2.18182 5.45455 1.94291 5.45455 1.63636C5.45455 1.32927 5.69345 1.09091 6 1.09091ZM2.62473 3.27273H9.37527L10.9091 10.9091H1.09091L2.62473 3.27273Z" fill="white" fill-opacity="0.6"/>
</svg>
