<svg width="13" height="12" viewBox="0 0 13 12" fill="none" xmlns="http://www.w3.org/2000/svg">
<path d="M7.1665 3.77181H1.88597C1.78594 3.77181 1.69 3.73207 1.61926 3.66134C1.54853 3.5906 1.50879 3.49467 1.50879 3.39463V1.88591C1.50879 1.78587 1.54853 1.68994 1.61926 1.6192C1.69 1.54847 1.78594 1.50873 1.88597 1.50873H7.1665C7.26654 1.50873 7.36248 1.54847 7.43321 1.6192C7.50395 1.68994 7.54368 1.78587 7.54368 1.88591V3.39463C7.54368 3.49467 7.50395 3.5906 7.43321 3.66134C7.36248 3.73207 7.26654 3.77181 7.1665 3.77181ZM2.26315 3.01745H6.78932V2.24046H2.26315V3.01745Z" fill="white" fill-opacity="0.6"/>
<path d="M7.1665 4.55634H1.88597C1.78594 4.55634 1.69 4.59607 1.61926 4.66681C1.54853 4.73754 1.50879 4.83348 1.50879 4.93352V6.41207C1.50879 6.5121 1.54853 6.60804 1.61926 6.67877C1.69 6.74951 1.78594 6.78925 1.88597 6.78925H6.17075L7.54368 5.39368V4.93352C7.54368 4.83348 7.50395 4.73754 7.43321 4.66681C7.36248 4.59607 7.26654 4.55634 7.1665 4.55634ZM6.78932 6.03488H2.26315V5.28052H6.78932V6.03488Z" fill="white" fill-opacity="0.6"/>
<path d="M3.41726 11.1306V11.108L3.53796 10.5837H0.754362V0.754362H8.29798V4.62047L9.05234 3.90759V0.377181C9.05234 0.277146 9.0126 0.181209 8.94187 0.110474C8.87113 0.0397386 8.7752 0 8.67516 0H0.377181C0.277146 0 0.181209 0.0397386 0.110474 0.110474C0.0397386 0.181209 0 0.277146 0 0.377181V10.9382C0 11.0383 0.0397386 11.1342 0.110474 11.205C0.181209 11.2757 0.277146 11.3154 0.377181 11.3154H3.39463C3.39774 11.2534 3.4053 11.1916 3.41726 11.1306Z" fill="white" fill-opacity="0.6"/>
<path d="M7.54371 6.4762L7.24951 6.77417C7.3225 6.75912 7.3894 6.72279 7.44176 6.66976C7.49412 6.61673 7.5296 6.54937 7.54371 6.4762Z" fill="white" fill-opacity="0.6"/>
<path d="M1.50879 9.40691C1.50879 9.50695 1.54853 9.60289 1.61926 9.67362C1.69 9.74436 1.78594 9.7841 1.88597 9.7841H3.71153L3.82468 9.29376L3.87371 9.08631V9.06745H2.26315V8.298H4.65448L5.40884 7.54364H1.88597C1.78594 7.54364 1.69 7.58338 1.61926 7.65411C1.54853 7.72485 1.50879 7.82079 1.50879 7.92082V9.40691Z" fill="white" fill-opacity="0.6"/>
<path d="M11.8774 5.53323L10.6063 4.26213C10.5499 4.20556 10.4829 4.16069 10.4091 4.13006C10.3353 4.09944 10.2562 4.08368 10.1763 4.08368C10.0964 4.08368 10.0173 4.09944 9.94354 4.13006C9.86975 4.16069 9.80274 4.20556 9.74633 4.26213L4.57517 9.46346L4.14896 11.2777C4.133 11.356 4.13264 11.4366 4.1479 11.515C4.16316 11.5934 4.19374 11.6681 4.23789 11.7346C4.28204 11.8012 4.33888 11.8584 4.40517 11.903C4.47147 11.9475 4.5459 11.9786 4.62421 11.9943C4.66308 11.9982 4.70226 11.9982 4.74113 11.9943C4.78735 12.0019 4.83448 12.0019 4.88069 11.9943L6.71002 11.5908L11.8774 6.41206C11.9338 6.35597 11.9786 6.28927 12.0092 6.2158C12.0398 6.14233 12.0555 6.06354 12.0555 5.98396C12.0555 5.90438 12.0398 5.82559 12.0092 5.75212C11.9786 5.67865 11.9338 5.61195 11.8774 5.55586V5.53323ZM6.32529 10.9043L4.94481 11.2098L5.2805 9.84064L9.15792 5.92173L10.2216 6.98538L6.32529 10.9043ZM10.6478 6.55916L9.58414 5.49551L10.1839 4.90334L11.255 5.97453L10.6478 6.55916Z" fill="white" fill-opacity="0.6"/>
</svg>



