<svg width="11" height="12" viewBox="0 0 11 12" fill="none" xmlns="http://www.w3.org/2000/svg">
<path d="M8.25 7.5L7.72125 8.02875L9.06375 9.375H3C2.60218 9.375 2.22064 9.21696 1.93934 8.93566C1.65804 8.65436 1.5 8.27282 1.5 7.875C1.5 7.47718 1.65804 7.09564 1.93934 6.81434C2.22064 6.53304 2.60218 6.375 3 6.375H7.5C8.09674 6.375 8.66903 6.13795 9.09099 5.71599C9.51295 5.29403 9.75 4.72174 9.75 4.125C9.75 3.52826 9.51295 2.95597 9.09099 2.53401C8.66903 2.11205 8.09674 1.875 7.5 1.875H1.43625L2.77875 0.52875L2.25 0L0 2.25L2.25 4.5L2.77875 3.97125L1.43625 2.625H7.5C7.89782 2.625 8.27936 2.78304 8.56066 3.06434C8.84196 3.34564 9 3.72718 9 4.125C9 4.52282 8.84196 4.90436 8.56066 5.18566C8.27936 5.46696 7.89782 5.625 7.5 5.625H3C2.40326 5.625 1.83097 5.86205 1.40901 6.28401C0.987053 6.70597 0.75 7.27826 0.75 7.875C0.75 8.47174 0.987053 9.04403 1.40901 9.46599C1.83097 9.88795 2.40326 10.125 3 10.125H9.06375L7.72125 11.4713L8.25 12L10.5 9.75L8.25 7.5Z" fill="white" fill-opacity="0.6"/>
</svg>
