<svg width="12" height="12" viewBox="0 0 12 12" fill="none" xmlns="http://www.w3.org/2000/svg">
<path d="M4.02344 6.11719V7.11719H2.05469V6.11719H4.02344ZM4.02344 4.125V5.11719H2.05469V4.125H4.02344ZM9.94531 8.11719V9.11719H7.28125V8.11719H9.94531ZM9.94531 6.11719V7.11719H4.69531V6.11719H9.94531ZM9.94531 4.125V5.11719H4.69531V4.125H9.94531ZM11 10.8438V1.15625C11 1.11458 10.9844 1.07812 10.9531 1.04688C10.9219 1.01562 10.8854 1 10.8438 1H10.5938L7.64062 3L6 1.66406L4.35938 3L1.40625 1H1.15625C1.11458 1 1.07812 1.01562 1.04688 1.04688C1.01562 1.07812 1 1.11458 1 1.15625V10.8438C1 10.8854 1.01562 10.9219 1.04688 10.9531C1.07812 10.9844 1.11458 11 1.15625 11H10.8438C10.8854 11 10.9219 10.9844 10.9531 10.9531C10.9844 10.9219 11 10.8854 11 10.8438ZM4.32031 2.17188L5.76562 1H2.59375L4.32031 2.17188ZM7.67969 2.17188L9.40625 1H6.23438L7.67969 2.17188ZM12 1.15625V10.8438C12 11.1667 11.888 11.4401 11.6641 11.6641C11.4401 11.888 11.1667 12 10.8438 12H1.15625C0.833333 12 0.559896 11.888 0.335938 11.6641C0.111979 11.4401 0 11.1667 0 10.8438V1.15625C0 0.833333 0.111979 0.559896 0.335938 0.335938C0.559896 0.111979 0.833333 0 1.15625 0H10.8438C11.1667 0 11.4401 0.111979 11.6641 0.335938C11.888 0.559896 12 0.833333 12 1.15625Z" fill="white" fill-opacity="0.6"/>
</svg>
