<svg width="13" height="12" viewBox="0 0 13 12" fill="none" xmlns="http://www.w3.org/2000/svg">
<path d="M12.6842 2.59562L8.06878 0.0571519C8.00063 0.0196594 7.92411 0 7.84632 0C7.76854 0 7.69201 0.0196594 7.62386 0.0571519L3.00847 2.59562C2.9361 2.63546 2.87576 2.69399 2.83373 2.76511C2.7917 2.83623 2.76953 2.91732 2.76953 2.99993C2.76953 3.08253 2.7917 3.16363 2.83373 3.23474C2.87576 3.30586 2.9361 3.36439 3.00847 3.40424L7.38478 5.81116V10.7584L5.98355 9.98764L5.53862 10.7958L7.62386 11.9427C7.69199 11.9803 7.76852 12 7.84632 12C7.92412 12 8.00066 11.9803 8.06878 11.9427L12.6842 9.40425C12.7566 9.36443 12.8169 9.3059 12.859 9.23478C12.9011 9.16367 12.9232 9.08256 12.9233 8.99994V2.99993C12.9232 2.91731 12.9011 2.8362 12.859 2.76509C12.8169 2.69397 12.7566 2.63544 12.6842 2.59562ZM7.84632 0.988539L11.504 2.99993L7.84632 5.01132L4.18862 2.99993L7.84632 0.988539ZM12.0002 8.72717L8.30786 10.7579V5.8107L12.0002 3.77993V8.72717Z" fill="white" fill-opacity="0.6"/>
<path d="M3.69232 5.99992H0V5.07684H3.69232V5.99992Z" fill="white" fill-opacity="0.6"/>
<path d="M4.61517 9.69224H0.922852V8.76917H4.61517V9.69224Z" fill="white" fill-opacity="0.6"/>
<path d="M5.53851 7.84611H1.84619V6.92303H5.53851V7.84611Z" fill="white" fill-opacity="0.6"/>
</svg>
