<svg width="12" height="12" viewBox="0 0 12 12" fill="none" xmlns="http://www.w3.org/2000/svg">
<g opacity="0.6">
<path d="M2.28437 8.67141V3.89252C2.6654 3.75781 2.98655 3.49272 3.19105 3.14412C3.39554 2.79552 3.47022 2.38585 3.40187 1.98752C3.33353 1.58919 3.12657 1.22784 2.81757 0.967339C2.50857 0.70684 2.11743 0.563965 1.71327 0.563965C1.30912 0.563965 0.917979 0.70684 0.60898 0.967339C0.299981 1.22784 0.0930202 1.58919 0.0246771 1.98752C-0.043666 2.38585 0.0310088 2.79552 0.235503 3.14412C0.439998 3.49272 0.761145 3.75781 1.14218 3.89252V8.67141C0.761145 8.80613 0.439998 9.07121 0.235503 9.41981C0.0310088 9.76841 -0.043666 10.1781 0.0246771 10.5764C0.0930202 10.9747 0.299981 11.3361 0.60898 11.5966C0.917979 11.8571 1.30912 12 1.71327 12C2.11743 12 2.50857 11.8571 2.81757 11.5966C3.12657 11.3361 3.33353 10.9747 3.40187 10.5764C3.47022 10.1781 3.39554 9.76841 3.19105 9.41981C2.98655 9.07121 2.6654 8.80613 2.28437 8.67141Z" fill="white"/>
<path d="M10.2796 8.67144V2.85545C10.2796 2.55253 10.1592 2.26201 9.94502 2.04781C9.73082 1.83361 9.4403 1.71327 9.13737 1.71327H6.18369L7.08944 0.807522L6.28192 0L4.80508 1.47684L3.99756 2.28436L4.80508 3.09188L6.28192 4.56872L7.08944 3.7612L6.18369 2.85545H9.13737V8.67144C8.75633 8.80616 8.43519 9.07124 8.23069 9.41984C8.0262 9.76844 7.95152 10.1781 8.01987 10.5764C8.08821 10.9748 8.29517 11.3361 8.60417 11.5966C8.91317 11.8571 9.30431 12 9.70846 12C10.1126 12 10.5038 11.8571 10.8128 11.5966C11.1218 11.3361 11.3287 10.9748 11.3971 10.5764C11.4654 10.1781 11.3907 9.76844 11.1862 9.41984C10.9817 9.07124 10.6606 8.80616 10.2796 8.67144Z" fill="white"/>
</g>
</svg>
