<svg width="14" height="14" viewBox="0 0 14 14" fill="none" xmlns="http://www.w3.org/2000/svg">
<path d="M4.33333 10.3333V9V10.3333ZM6.83333 10.3333V7.66667V10.3333ZM9.33333 10.3333V6.33333V10.3333ZM11 13H2.66667C2.22464 13 1.80072 12.8595 1.48816 12.6095C1.17559 12.3594 1 12.0203 1 11.6667V2.33333C1 1.97971 1.17559 1.64057 1.48816 1.39052C1.80072 1.14048 2.22464 1 2.66667 1H7.32167C7.54266 1.00004 7.75459 1.0703 7.91083 1.19533L12.4225 4.80467C12.5788 4.92966 12.6666 5.0992 12.6667 5.276V11.6667C12.6667 12.0203 12.4911 12.3594 12.1785 12.6095C11.866 12.8595 11.442 13 11 13Z" stroke="white" stroke-opacity="0.6" stroke-linecap="round" stroke-linejoin="round"/>
</svg>
